<?xml version="1.0" encoding="UTF-8" standalone="no"?><svg xmlns="http://www.w3.org/2000/svg" xmlns:xlink="http://www.w3.org/1999/xlink" contentScriptType="application/ecmascript" contentStyleType="text/css" height="571px" preserveAspectRatio="none" style="width:1694px;height:571px;" version="1.1" viewBox="0 0 1694 571" width="1694px" zoomAndPan="magnify"><defs><filter height="300%" id="fz80ms453cpqk" width="300%" x="-1" y="-1"><feGaussianBlur result="blurOut" stdDeviation="2.0"/><feColorMatrix in="blurOut" result="blurOut2" type="matrix" values="0 0 0 0 0 0 0 0 0 0 0 0 0 0 0 0 0 0 .4 0"/><feOffset dx="4.0" dy="4.0" in="blurOut2" result="blurOut3"/><feBlend in="SourceGraphic" in2="blurOut3" mode="normal"/></filter></defs><g><!--MD5=[d694de1a4d3eb4abf36fc4a4dacd5966]
class processState--><rect fill="#CCCCCC" filter="url(#fz80ms453cpqk)" height="94.7996" id="processState" style="stroke: #AAAAAA; stroke-width: 1.5;" width="91" x="16" y="27.5"/><ellipse cx="28" cy="40.5" fill="#EB937F" rx="8" ry="8" style="stroke: #AAAAAA; stroke-width: 1.0;"/><path d="M26.5156,40.8906 L30.3438,40.8906 L30.3438,39.5 L26.5156,39.5 L26.5156,37.8906 L30.6563,37.8906 L30.6563,36.5 L24.8594,36.5 L24.8594,44.5 L30.8594,44.5 L30.8594,43.125 L26.5156,43.125 L26.5156,40.8906 Z "/><text fill="#000000" font-family="Verdana" font-size="11" lengthAdjust="spacingAndGlyphs" textLength="65" x="39" y="44.119">processState</text><line style="stroke: #AAAAAA; stroke-width: 1.5;" x1="17" x2="106" y1="53.5" y2="53.5"/><text fill="#333333" font-family="sans-serif" font-size="11" lengthAdjust="spacingAndGlyphs" textLength="78" x="22" y="67.7189">WaitingPayment</text><text fill="#333333" font-family="sans-serif" font-size="11" lengthAdjust="spacingAndGlyphs" textLength="43" x="22" y="80.9188">Agended</text><text fill="#333333" font-family="sans-serif" font-size="11" lengthAdjust="spacingAndGlyphs" textLength="54" x="22" y="94.1187">InProgress</text><text fill="#333333" font-family="sans-serif" font-size="11" lengthAdjust="spacingAndGlyphs" textLength="52" x="22" y="107.3186">Concluded</text><line style="stroke: #AAAAAA; stroke-width: 1.5;" x1="17" x2="106" y1="114.2996" y2="114.2996"/><!--MD5=[090baa0da4ff03e6b68a244d81271cc4]
class classification--><rect fill="#CCCCCC" filter="url(#fz80ms453cpqk)" height="121.1994" id="classification" style="stroke: #AAAAAA; stroke-width: 1.5;" width="88" x="142.5" y="14.5"/><ellipse cx="154.5" cy="27.5" fill="#EB937F" rx="8" ry="8" style="stroke: #AAAAAA; stroke-width: 1.0;"/><path d="M153.0156,27.8906 L156.8438,27.8906 L156.8438,26.5 L153.0156,26.5 L153.0156,24.8906 L157.1563,24.8906 L157.1563,23.5 L151.3594,23.5 L151.3594,31.5 L157.3594,31.5 L157.3594,30.125 L153.0156,30.125 L153.0156,27.8906 Z "/><text fill="#000000" font-family="Verdana" font-size="11" lengthAdjust="spacingAndGlyphs" textLength="62" x="165.5" y="31.119">classification</text><line style="stroke: #AAAAAA; stroke-width: 1.5;" x1="143.5" x2="229.5" y1="40.5" y2="40.5"/><text fill="#333333" font-family="sans-serif" font-size="11" lengthAdjust="spacingAndGlyphs" textLength="48" x="148.5" y="54.7189">Unreliable</text><text fill="#333333" font-family="sans-serif" font-size="11" lengthAdjust="spacingAndGlyphs" textLength="37" x="148.5" y="67.9188">Clumsy</text><text fill="#333333" font-family="sans-serif" font-size="11" lengthAdjust="spacingAndGlyphs" textLength="56" x="148.5" y="81.1187">GetsItDone</text><text fill="#333333" font-family="sans-serif" font-size="11" lengthAdjust="spacingAndGlyphs" textLength="60" x="148.5" y="94.3186">HardWorker</text><text fill="#333333" font-family="sans-serif" font-size="11" lengthAdjust="spacingAndGlyphs" textLength="42" x="148.5" y="107.5185">Attentive</text><text fill="#333333" font-family="sans-serif" font-size="11" lengthAdjust="spacingAndGlyphs" textLength="31" x="148.5" y="120.7184">Savior</text><line style="stroke: #AAAAAA; stroke-width: 1.5;" x1="143.5" x2="229.5" y1="127.6994" y2="127.6994"/><!--MD5=[44666af3f6bf3a5c82a83a4f4ee59e64]
class servicesType--><rect fill="#CCCCCC" filter="url(#fz80ms453cpqk)" height="68.3998" id="servicesType" style="stroke: #AAAAAA; stroke-width: 1.5;" width="93" x="266" y="41"/><ellipse cx="278" cy="54" fill="#FF8800" rx="8" ry="8" style="stroke: #AAAAAA; stroke-width: 1.0;"/><path d="M276.5156,54.3906 L280.3438,54.3906 L280.3438,53 L276.5156,53 L276.5156,51.3906 L280.6563,51.3906 L280.6563,50 L274.8594,50 L274.8594,58 L280.8594,58 L280.8594,56.625 L276.5156,56.625 L276.5156,54.3906 Z "/><text fill="#000000" font-family="Verdana" font-size="11" lengthAdjust="spacingAndGlyphs" textLength="67" x="289" y="57.619">servicesType</text><line style="stroke: #AAAAAA; stroke-width: 1.5;" x1="267" x2="358" y1="67" y2="67"/><text fill="#333333" font-family="sans-serif" font-size="11" lengthAdjust="spacingAndGlyphs" textLength="39" x="272" y="81.2189">bool pro</text><text fill="#333333" font-family="sans-serif" font-size="11" lengthAdjust="spacingAndGlyphs" textLength="66" x="272" y="94.4188">string service</text><line style="stroke: #AAAAAA; stroke-width: 1.5;" x1="267" x2="358" y1="101.3998" y2="101.3998"/><!--MD5=[795a4aacf1bde433470b0e5b01d3050a]
class date--><rect fill="#CCCCCC" filter="url(#fz80ms453cpqk)" height="107.9995" id="date" style="stroke: #AAAAAA; stroke-width: 1.5;" width="111" x="6" y="327.5"/><ellipse cx="47.5" cy="340.5" fill="#FF8800" rx="8" ry="8" style="stroke: #AAAAAA; stroke-width: 1.0;"/><path d="M46.0156,340.8906 L49.8438,340.8906 L49.8438,339.5 L46.0156,339.5 L46.0156,337.8906 L50.1563,337.8906 L50.1563,336.5 L44.3594,336.5 L44.3594,344.5 L50.3594,344.5 L50.3594,343.125 L46.0156,343.125 L46.0156,340.8906 Z "/><text fill="#000000" font-family="Verdana" font-size="11" lengthAdjust="spacingAndGlyphs" textLength="21" x="63.5" y="344.119">date</text><line style="stroke: #AAAAAA; stroke-width: 1.5;" x1="7" x2="116" y1="353.5" y2="353.5"/><text fill="#333333" font-family="sans-serif" font-size="11" lengthAdjust="spacingAndGlyphs" textLength="79" x="12" y="367.7189">unsigned int day</text><text fill="#333333" font-family="sans-serif" font-size="11" lengthAdjust="spacingAndGlyphs" textLength="91" x="12" y="380.9188">unsigned int month</text><text fill="#333333" font-family="sans-serif" font-size="11" lengthAdjust="spacingAndGlyphs" textLength="83" x="12" y="394.1187">unsigned int year</text><text fill="#333333" font-family="sans-serif" font-size="11" lengthAdjust="spacingAndGlyphs" textLength="89" x="12" y="407.3186">unsigned int hours</text><text fill="#333333" font-family="sans-serif" font-size="11" lengthAdjust="spacingAndGlyphs" textLength="99" x="12" y="420.5185">unsigned int minutes</text><line style="stroke: #AAAAAA; stroke-width: 1.5;" x1="7" x2="116" y1="427.4995" y2="427.4995"/><!--MD5=[34fc254bc528b6b0fa50d673940a681f]
class HouseMaster--><rect fill="#CCCCCC" filter="url(#fz80ms453cpqk)" height="358.7976" id="HouseMaster" style="stroke: #AAAAAA; stroke-width: 1.5;" width="402" x="152.5" y="202"/><ellipse cx="317" cy="215" fill="#FF8800" rx="8" ry="8" style="stroke: #AAAAAA; stroke-width: 1.0;"/><path d="M320.5,213.75 C320.4375,213.1094 320.2969,212.7031 319.9531,212.2656 C319.3438,211.4531 318.3438,211 317.1563,211 C314.8906,211 313.4688,212.6094 313.4688,215.0156 C313.4688,217.4219 314.875,219 317.1094,219 C319.1094,219 320.4219,217.8594 320.5313,216.125 L318.9219,216.125 C318.8125,217.0781 318.1719,217.625 317.1563,217.625 C315.875,217.625 315.125,216.6563 315.125,215.0313 C315.125,213.3906 315.9063,212.4219 317.2031,212.4219 C318.1563,212.4219 318.7031,212.8438 318.9219,213.75 L320.5,213.75 Z "/><text fill="#000000" font-family="Verdana" font-size="11" lengthAdjust="spacingAndGlyphs" textLength="66" x="333" y="218.619">HouseMaster</text><line style="stroke: #AAAAAA; stroke-width: 1.5;" x1="153.5" x2="553.5" y1="228" y2="228"/><rect fill="none" height="6" style="stroke: #C82930; stroke-width: 1.0;" width="6" x="160.5" y="236"/><text fill="#333333" font-family="sans-serif" font-size="11" lengthAdjust="spacingAndGlyphs" textLength="202" x="169.5" y="242.2189">vector&lt;servicesType*&gt; availableServices</text><rect fill="none" height="6" style="stroke: #C82930; stroke-width: 1.0;" width="6" x="160.5" y="249.1999"/><text fill="#333333" font-family="sans-serif" font-size="11" lengthAdjust="spacingAndGlyphs" textLength="163" x="169.5" y="255.4188">vector&lt;individuals*&gt; collaborators</text><rect fill="none" height="6" style="stroke: #C82930; stroke-width: 1.0;" width="6" x="160.5" y="262.3998"/><text fill="#333333" font-family="sans-serif" font-size="11" lengthAdjust="spacingAndGlyphs" textLength="131" x="169.5" y="268.6187">vector&lt;individuals*&gt; clients</text><rect fill="none" height="6" style="stroke: #C82930; stroke-width: 1.0;" width="6" x="160.5" y="275.5997"/><text fill="#333333" font-family="sans-serif" font-size="11" lengthAdjust="spacingAndGlyphs" textLength="168" x="169.5" y="281.8186">vector&lt;intervention*&gt; interventions</text><line style="stroke: #AAAAAA; stroke-width: 1.0;" x1="153.5" x2="553.5" y1="288.7996" y2="288.7996"/><ellipse cx="163.5" cy="299.7996" fill="#84BE84" rx="3" ry="3" style="stroke: #038048; stroke-width: 1.0;"/><text fill="#333333" font-family="sans-serif" font-size="11" lengthAdjust="spacingAndGlyphs" textLength="95" x="169.5" y="303.0185">void houseMaster()</text><text fill="#333333" font-family="sans-serif" font-size="11" lengthAdjust="spacingAndGlyphs" textLength="0" x="172.5" y="316.2184"/><ellipse cx="163.5" cy="326.1994" fill="#84BE84" rx="3" ry="3" style="stroke: #038048; stroke-width: 1.0;"/><text fill="#333333" font-family="sans-serif" font-size="11" lengthAdjust="spacingAndGlyphs" textLength="123" x="169.5" y="329.4183">int getAvailableServices()</text><rect fill="#F24D5C" height="6" style="stroke: #C82930; stroke-width: 1.0;" width="6" x="160.5" y="336.3993"/><text fill="#333333" font-family="sans-serif" font-size="11" lengthAdjust="spacingAndGlyphs" textLength="237" x="169.5" y="342.6182">int addAvailableServices(bool pro, string service)</text><rect fill="#F24D5C" height="6" style="stroke: #C82930; stroke-width: 1.0;" width="6" x="160.5" y="349.5992"/><text fill="#333333" font-family="sans-serif" font-size="11" lengthAdjust="spacingAndGlyphs" textLength="211" x="169.5" y="355.8181">int removeAvailableServices(string service)</text><text fill="#333333" font-family="sans-serif" font-size="11" lengthAdjust="spacingAndGlyphs" textLength="0" x="172.5" y="369.018"/><ellipse cx="163.5" cy="378.999" fill="#84BE84" rx="3" ry="3" style="stroke: #038048; stroke-width: 1.0;"/><text fill="#333333" font-family="sans-serif" font-size="11" lengthAdjust="spacingAndGlyphs" textLength="102" x="169.5" y="382.2179">int getCollaborators()</text><rect fill="#F24D5C" height="6" style="stroke: #C82930; stroke-width: 1.0;" width="6" x="160.5" y="389.1989"/><text fill="#333333" font-family="sans-serif" font-size="11" lengthAdjust="spacingAndGlyphs" textLength="379" x="169.5" y="395.4178">int addCollaborator(string name, vector&lt;servicesType*&gt; functions, Availability)</text><rect fill="#F24D5C" height="6" style="stroke: #C82930; stroke-width: 1.0;" width="6" x="160.5" y="402.3988"/><text fill="#333333" font-family="sans-serif" font-size="11" lengthAdjust="spacingAndGlyphs" textLength="187" x="169.5" y="408.6177">int removeCollaborator(unsigned int id)</text><text fill="#333333" font-family="sans-serif" font-size="11" lengthAdjust="spacingAndGlyphs" textLength="0" x="172.5" y="421.8176"/><ellipse cx="163.5" cy="431.7986" fill="#84BE84" rx="3" ry="3" style="stroke: #038048; stroke-width: 1.0;"/><text fill="#333333" font-family="sans-serif" font-size="11" lengthAdjust="spacingAndGlyphs" textLength="70" x="169.5" y="435.0175">int getClients()</text><rect fill="#F24D5C" height="6" style="stroke: #C82930; stroke-width: 1.0;" width="6" x="160.5" y="441.9985"/><text fill="#333333" font-family="sans-serif" font-size="11" lengthAdjust="spacingAndGlyphs" textLength="124" x="169.5" y="448.2174">int addClient(string name)</text><rect fill="#F24D5C" height="6" style="stroke: #C82930; stroke-width: 1.0;" width="6" x="160.5" y="455.1984"/><text fill="#333333" font-family="sans-serif" font-size="11" lengthAdjust="spacingAndGlyphs" textLength="155" x="169.5" y="461.4173">int removeClient(unsigned int id)</text><text fill="#333333" font-family="sans-serif" font-size="11" lengthAdjust="spacingAndGlyphs" textLength="0" x="172.5" y="474.6173"/><ellipse cx="163.5" cy="484.5982" fill="#84BE84" rx="3" ry="3" style="stroke: #038048; stroke-width: 1.0;"/><text fill="#333333" font-family="sans-serif" font-size="11" lengthAdjust="spacingAndGlyphs" textLength="100" x="169.5" y="487.8172">int getInterventions()</text><ellipse cx="163.5" cy="497.7981" fill="#84BE84" rx="3" ry="3" style="stroke: #038048; stroke-width: 1.0;"/><text fill="#333333" font-family="sans-serif" font-size="11" lengthAdjust="spacingAndGlyphs" textLength="277" x="169.5" y="501.0171">int addIntervention(servicesType type, date appointment)</text><ellipse cx="163.5" cy="510.998" fill="#84BE84" rx="3" ry="3" style="stroke: #038048; stroke-width: 1.0;"/><text fill="#333333" font-family="sans-serif" font-size="11" lengthAdjust="spacingAndGlyphs" textLength="185" x="169.5" y="514.217">int removeIntervention(unsigned int id)</text><text fill="#333333" font-family="sans-serif" font-size="11" lengthAdjust="spacingAndGlyphs" textLength="0" x="172.5" y="527.4169"/><ellipse cx="163.5" cy="537.3978" fill="#84BE84" rx="3" ry="3" style="stroke: #038048; stroke-width: 1.0;"/><text fill="#333333" font-family="sans-serif" font-size="11" lengthAdjust="spacingAndGlyphs" textLength="227" x="169.5" y="540.6168">int assignCollaborator(intervention toAssignTo)</text><ellipse cx="163.5" cy="550.5977" fill="#84BE84" rx="3" ry="3" style="stroke: #038048; stroke-width: 1.0;"/><text fill="#333333" font-family="sans-serif" font-size="11" lengthAdjust="spacingAndGlyphs" textLength="227" x="169.5" y="553.8167">int calculateCost(intervention toCalculateFrom)</text><!--MD5=[91506c20fa69d22eac57944020c826c2]
class Intervention--><rect fill="#CCCCCC" filter="url(#fz80ms453cpqk)" height="187.1989" id="Intervention" style="stroke: #AAAAAA; stroke-width: 1.5;" width="361" x="590" y="288"/><ellipse cx="738.5" cy="301" fill="#FF8800" rx="8" ry="8" style="stroke: #AAAAAA; stroke-width: 1.0;"/><path d="M742,299.75 C741.9375,299.1094 741.7969,298.7031 741.4531,298.2656 C740.8438,297.4531 739.8438,297 738.6563,297 C736.3906,297 734.9688,298.6094 734.9688,301.0156 C734.9688,303.4219 736.375,305 738.6094,305 C740.6094,305 741.9219,303.8594 742.0313,302.125 L740.4219,302.125 C740.3125,303.0781 739.6719,303.625 738.6563,303.625 C737.375,303.625 736.625,302.6563 736.625,301.0313 C736.625,299.3906 737.4063,298.4219 738.7031,298.4219 C739.6563,298.4219 740.2031,298.8438 740.4219,299.75 L742,299.75 Z "/><text fill="#000000" font-family="Verdana" font-size="11" lengthAdjust="spacingAndGlyphs" textLength="57" x="754.5" y="304.619">Intervention</text><line style="stroke: #AAAAAA; stroke-width: 1.5;" x1="591" x2="950" y1="314" y2="314"/><rect fill="none" height="6" style="stroke: #C82930; stroke-width: 1.0;" width="6" x="598" y="322"/><text fill="#333333" font-family="sans-serif" font-size="11" lengthAdjust="spacingAndGlyphs" textLength="69" x="607" y="328.2189">unsigned int id</text><rect fill="none" height="6" style="stroke: #C82930; stroke-width: 1.0;" width="6" x="598" y="335.1999"/><text fill="#333333" font-family="sans-serif" font-size="11" lengthAdjust="spacingAndGlyphs" textLength="83" x="607" y="341.4188">date appointment</text><rect fill="none" height="6" style="stroke: #C82930; stroke-width: 1.0;" width="6" x="598" y="348.3998"/><text fill="#333333" font-family="sans-serif" font-size="11" lengthAdjust="spacingAndGlyphs" textLength="91" x="607" y="354.6187">servicesType type</text><rect fill="none" height="6" style="stroke: #C82930; stroke-width: 1.0;" width="6" x="598" y="361.5997"/><text fill="#333333" font-family="sans-serif" font-size="11" lengthAdjust="spacingAndGlyphs" textLength="65" x="607" y="367.8186">bool forcePro</text><rect fill="none" height="6" style="stroke: #C82930; stroke-width: 1.0;" width="6" x="598" y="374.7996"/><text fill="#333333" font-family="sans-serif" font-size="11" lengthAdjust="spacingAndGlyphs" textLength="104" x="607" y="381.0185">collaborator assigned</text><rect fill="none" height="6" style="stroke: #C82930; stroke-width: 1.0;" width="6" x="598" y="387.9995"/><text fill="#333333" font-family="sans-serif" font-size="11" lengthAdjust="spacingAndGlyphs" textLength="92" x="607" y="394.2184">processState state</text><rect fill="none" height="6" style="stroke: #C82930; stroke-width: 1.0;" width="6" x="598" y="401.1994"/><text fill="#333333" font-family="sans-serif" font-size="11" lengthAdjust="spacingAndGlyphs" textLength="47" x="607" y="407.4183">float price</text><line style="stroke: #AAAAAA; stroke-width: 1.0;" x1="591" x2="950" y1="414.3993" y2="414.3993"/><ellipse cx="601" cy="425.3993" fill="#84BE84" rx="3" ry="3" style="stroke: #038048; stroke-width: 1.0;"/><text fill="#333333" font-family="sans-serif" font-size="11" lengthAdjust="spacingAndGlyphs" textLength="338" x="607" y="428.6182">void intervention(date appointment, servicesType type, bool forcePro)</text><ellipse cx="601" cy="438.5992" fill="#84BE84" rx="3" ry="3" style="stroke: #038048; stroke-width: 1.0;"/><text fill="#333333" font-family="sans-serif" font-size="11" lengthAdjust="spacingAndGlyphs" textLength="62" x="607" y="441.8181">int getType()</text><ellipse cx="601" cy="451.7991" fill="#84BE84" rx="3" ry="3" style="stroke: #038048; stroke-width: 1.0;"/><text fill="#333333" font-family="sans-serif" font-size="11" lengthAdjust="spacingAndGlyphs" textLength="103" x="607" y="455.018">int getProcessState()</text><ellipse cx="601" cy="464.999" fill="#84BE84" rx="3" ry="3" style="stroke: #038048; stroke-width: 1.0;"/><text fill="#333333" font-family="sans-serif" font-size="11" lengthAdjust="spacingAndGlyphs" textLength="62" x="607" y="468.2179">int getPrice()</text><!--MD5=[3ada0b1ccda01f6af47785107eed7eb1]
class Individual--><rect fill="#CCCCCC" filter="url(#fz80ms453cpqk)" height="134.3993" id="Individual" style="stroke: #AAAAAA; stroke-width: 1.5;" width="251" x="1180" y="8"/><ellipse cx="1279.5" cy="21" fill="#FF8800" rx="8" ry="8" style="stroke: #AAAAAA; stroke-width: 1.0;"/><path d="M1283,19.75 C1282.9375,19.1094 1282.7969,18.7031 1282.4531,18.2656 C1281.8438,17.4531 1280.8438,17 1279.6563,17 C1277.3906,17 1275.9688,18.6094 1275.9688,21.0156 C1275.9688,23.4219 1277.375,25 1279.6094,25 C1281.6094,25 1282.9219,23.8594 1283.0313,22.125 L1281.4219,22.125 C1281.3125,23.0781 1280.6719,23.625 1279.6563,23.625 C1278.375,23.625 1277.625,22.6563 1277.625,21.0313 C1277.625,19.3906 1278.4063,18.4219 1279.7031,18.4219 C1280.6563,18.4219 1281.2031,18.8438 1281.4219,19.75 L1283,19.75 Z "/><text fill="#000000" font-family="Verdana" font-size="11" lengthAdjust="spacingAndGlyphs" textLength="45" x="1295.5" y="24.619">Individual</text><line style="stroke: #AAAAAA; stroke-width: 1.5;" x1="1181" x2="1430" y1="34" y2="34"/><polygon fill="none" points="1191,40,1195,44,1191,48,1187,44" style="stroke: #B38D22; stroke-width: 1.0;"/><text fill="#333333" font-family="sans-serif" font-size="11" lengthAdjust="spacingAndGlyphs" textLength="57" x="1197" y="48.2189">string name</text><polygon fill="none" points="1191,53.1999,1195,57.1999,1191,61.1999,1187,57.1999" style="stroke: #B38D22; stroke-width: 1.0;"/><text fill="#333333" font-family="sans-serif" font-size="11" lengthAdjust="spacingAndGlyphs" textLength="69" x="1197" y="61.4188">unsigned int id</text><polygon fill="none" points="1191,66.3998,1195,70.3998,1191,74.3998,1187,70.3998" style="stroke: #B38D22; stroke-width: 1.0;"/><text fill="#333333" font-family="sans-serif" font-size="11" lengthAdjust="spacingAndGlyphs" textLength="228" x="1197" y="74.6187">vector&lt;interventions*&gt; associatedInterventions</text><line style="stroke: #AAAAAA; stroke-width: 1.0;" x1="1181" x2="1430" y1="81.5997" y2="81.5997"/><ellipse cx="1191" cy="92.5997" fill="#84BE84" rx="3" ry="3" style="stroke: #038048; stroke-width: 1.0;"/><text fill="#333333" font-family="sans-serif" font-size="11" lengthAdjust="spacingAndGlyphs" textLength="109" x="1197" y="95.8186">individual(string name)</text><ellipse cx="1191" cy="105.7996" fill="#84BE84" rx="3" ry="3" style="stroke: #038048; stroke-width: 1.0;"/><text fill="#333333" font-family="sans-serif" font-size="11" lengthAdjust="spacingAndGlyphs" textLength="93" x="1197" y="109.0185">unsigned int getId()</text><ellipse cx="1191" cy="118.9995" fill="#84BE84" rx="3" ry="3" style="stroke: #038048; stroke-width: 1.0;"/><text fill="#333333" font-family="sans-serif" font-size="11" lengthAdjust="spacingAndGlyphs" textLength="82" x="1197" y="122.2184">string getName()</text><ellipse cx="1191" cy="132.1994" fill="#84BE84" rx="3" ry="3" style="stroke: #038048; stroke-width: 1.0;"/><text fill="#333333" font-family="sans-serif" font-size="11" lengthAdjust="spacingAndGlyphs" textLength="192" x="1197" y="135.4183">bool operator== (const individual&amp; right)</text><!--MD5=[f483d6e5de34a60207b28a5563be5e8b]
class Collaborator--><rect fill="#CCCCCC" filter="url(#fz80ms453cpqk)" height="134.3993" id="Collaborator" style="stroke: #AAAAAA; stroke-width: 1.5;" width="272" x="986.5" y="314.5"/><ellipse cx="1089.5" cy="327.5" fill="#FF8800" rx="8" ry="8" style="stroke: #AAAAAA; stroke-width: 1.0;"/><path d="M1093,326.25 C1092.9375,325.6094 1092.7969,325.2031 1092.4531,324.7656 C1091.8438,323.9531 1090.8438,323.5 1089.6563,323.5 C1087.3906,323.5 1085.9688,325.1094 1085.9688,327.5156 C1085.9688,329.9219 1087.375,331.5 1089.6094,331.5 C1091.6094,331.5 1092.9219,330.3594 1093.0313,328.625 L1091.4219,328.625 C1091.3125,329.5781 1090.6719,330.125 1089.6563,330.125 C1088.375,330.125 1087.625,329.1563 1087.625,327.5313 C1087.625,325.8906 1088.4063,324.9219 1089.7031,324.9219 C1090.6563,324.9219 1091.2031,325.3438 1091.4219,326.25 L1093,326.25 Z "/><text fill="#000000" font-family="Verdana" font-size="11" lengthAdjust="spacingAndGlyphs" textLength="59" x="1105.5" y="331.119">Collaborator</text><line style="stroke: #AAAAAA; stroke-width: 1.5;" x1="987.5" x2="1257.5" y1="340.5" y2="340.5"/><rect fill="none" height="6" style="stroke: #C82930; stroke-width: 1.0;" width="6" x="994.5" y="348.5"/><text fill="#333333" font-family="sans-serif" font-size="11" lengthAdjust="spacingAndGlyphs" textLength="161" x="1003.5" y="354.7189">vector&lt;servicesType*&gt; functions</text><rect fill="none" height="6" style="stroke: #C82930; stroke-width: 1.0;" width="6" x="994.5" y="361.6999"/><text fill="#333333" font-family="sans-serif" font-size="11" lengthAdjust="spacingAndGlyphs" textLength="93" x="1003.5" y="367.9188">classification score</text><rect fill="none" height="6" style="stroke: #C82930; stroke-width: 1.0;" width="6" x="994.5" y="374.8998"/><text fill="#333333" font-family="sans-serif" font-size="11" lengthAdjust="spacingAndGlyphs" textLength="50" x="1003.5" y="381.1187">Availability</text><line style="stroke: #AAAAAA; stroke-width: 1.0;" x1="987.5" x2="1257.5" y1="388.0997" y2="388.0997"/><ellipse cx="997.5" cy="399.0997" fill="#84BE84" rx="3" ry="3" style="stroke: #038048; stroke-width: 1.0;"/><text fill="#333333" font-family="sans-serif" font-size="11" lengthAdjust="spacingAndGlyphs" textLength="249" x="1003.5" y="402.3186">void collaborator(vector&lt;servicesType*&gt; functions)</text><ellipse cx="997.5" cy="412.2996" fill="#84BE84" rx="3" ry="3" style="stroke: #038048; stroke-width: 1.0;"/><text fill="#333333" font-family="sans-serif" font-size="11" lengthAdjust="spacingAndGlyphs" textLength="85" x="1003.5" y="415.5185">int getFunctions()</text><ellipse cx="997.5" cy="425.4995" fill="#84BE84" rx="3" ry="3" style="stroke: #038048; stroke-width: 1.0;"/><text fill="#333333" font-family="sans-serif" font-size="11" lengthAdjust="spacingAndGlyphs" textLength="66" x="1003.5" y="428.7184">int getScore()</text><ellipse cx="997.5" cy="438.6994" fill="#84BE84" rx="3" ry="3" style="stroke: #038048; stroke-width: 1.0;"/><text fill="#333333" font-family="sans-serif" font-size="11" lengthAdjust="spacingAndGlyphs" textLength="87" x="1003.5" y="441.9183">int getAvailability()</text><!--MD5=[ed6624c6556d5e7b1bd23032162d20b7]
class Client--><rect fill="#CCCCCC" filter="url(#fz80ms453cpqk)" height="94.7996" id="Client" style="stroke: #AAAAAA; stroke-width: 1.5;" width="390" x="1293.5" y="334"/><ellipse cx="1471.5" cy="347" fill="#FF8800" rx="8" ry="8" style="stroke: #AAAAAA; stroke-width: 1.0;"/><path d="M1475,345.75 C1474.9375,345.1094 1474.7969,344.7031 1474.4531,344.2656 C1473.8438,343.4531 1472.8438,343 1471.6563,343 C1469.3906,343 1467.9688,344.6094 1467.9688,347.0156 C1467.9688,349.4219 1469.375,351 1471.6094,351 C1473.6094,351 1474.9219,349.8594 1475.0313,348.125 L1473.4219,348.125 C1473.3125,349.0781 1472.6719,349.625 1471.6563,349.625 C1470.375,349.625 1469.625,348.6563 1469.625,347.0313 C1469.625,345.3906 1470.4063,344.4219 1471.7031,344.4219 C1472.6563,344.4219 1473.2031,344.8438 1473.4219,345.75 L1475,345.75 Z "/><text fill="#000000" font-family="Verdana" font-size="11" lengthAdjust="spacingAndGlyphs" textLength="27" x="1487.5" y="350.619">Client</text><line style="stroke: #AAAAAA; stroke-width: 1.5;" x1="1294.5" x2="1682.5" y1="360" y2="360"/><rect fill="none" height="6" style="stroke: #C82930; stroke-width: 1.0;" width="6" x="1301.5" y="368"/><text fill="#333333" font-family="sans-serif" font-size="11" lengthAdjust="spacingAndGlyphs" textLength="72" x="1310.5" y="374.2189">unsigned int nif</text><line style="stroke: #AAAAAA; stroke-width: 1.0;" x1="1294.5" x2="1682.5" y1="381.1999" y2="381.1999"/><ellipse cx="1304.5" cy="392.1999" fill="#84BE84" rx="3" ry="3" style="stroke: #038048; stroke-width: 1.0;"/><text fill="#333333" font-family="sans-serif" font-size="11" lengthAdjust="spacingAndGlyphs" textLength="97" x="1310.5" y="395.4188">void client(string nif)</text><ellipse cx="1304.5" cy="405.3998" fill="#84BE84" rx="3" ry="3" style="stroke: #038048; stroke-width: 1.0;"/><text fill="#333333" font-family="sans-serif" font-size="11" lengthAdjust="spacingAndGlyphs" textLength="97" x="1310.5" y="408.6187">unsigned int getNif()</text><ellipse cx="1304.5" cy="418.5997" fill="#84BE84" rx="3" ry="3" style="stroke: #038048; stroke-width: 1.0;"/><text fill="#333333" font-family="sans-serif" font-size="11" lengthAdjust="spacingAndGlyphs" textLength="367" x="1310.5" y="421.8186">int requestIntervention(date appointment, servicesType type, bool forcePro)</text><!--MD5=[8d1d930e92d69d0f63c31789944ca4f0]
reverse link Individual to Collaborator--><path d="M1255.35,159.44 C1226.06,208.19 1189.6,268.85 1162.29,314.29 " fill="none" id="Individual&lt;-Collaborator" style="stroke: #000000; stroke-width: 1.0;"/><polygon fill="none" points="1249.49,155.61,1265.79,142.07,1261.49,162.82,1249.49,155.61" style="stroke: #000000; stroke-width: 1.0;"/><!--MD5=[f2f702391b19b694c366b89ff259a1c9]
reverse link Individual to Client--><path d="M1355.58,159.33 C1389.34,215.51 1432.64,287.56 1460.48,333.88 " fill="none" id="Individual&lt;-Client" style="stroke: #000000; stroke-width: 1.0;"/><polygon fill="none" points="1349.51,162.82,1345.21,142.07,1361.51,155.61,1349.51,162.82" style="stroke: #000000; stroke-width: 1.0;"/><!--MD5=[0b28f555f6085418fa031ce8cebd84de]
link processState to classification--><!--MD5=[fd7d9cf011b9bab246e03f751f944078]
link classification to servicesType--><!--MD5=[2e88bc4f1b79698071829a5fe469358e]
link processState to date--><!--MD5=[ab9ac5faac7c1aa41d8e9dc8d2c08e96]
link date to HouseMaster--><!--MD5=[52bb7d636f06fb291eb3bf7673314e5b]
link HouseMaster to Intervention--><!--MD5=[fb04006861f09ba29d58e5ff0dedddc8]
@startuml










skinparam stereotypeCBackgroundColor FF8800

skinparam backgroundColor fff








skinparam circledCharacter {
  radius 8
  fontSize 11
  fontName Verdana
}

skinparam class {
    backgroundColor ccc
  borderColor aaa
    fontColor 000
  fontName Verdana
  fontSize 11
  stereotypeFontColor 333
  stereotypeFontSize 11
    arrowColor 000
  arrowFontName Verdana
  arrowFontColor 333
  arrowFontSize 11

  attributeFontColor 333
  attributeFontSize 11
  attributeIconSize 11
}


skinparam actor {
    backgroundColor FF8800
  borderColor BB6600
    fontColor 000
  fontName Verdana
  fontSize 11
  stereotypeFontColor 333
  stereotypeFontSize 11
}

skinparam participant {
    backgroundColor ccc
  borderColor aaa
    fontColor 000
  fontName Verdana
  fontSize 11
  stereotypeFontColor 333
  stereotypeFontSize 11
}

skinparam collections {
    backgroundColor ccc
  borderColor aaa
    fontColor 000
  fontName Verdana
  fontSize 11
  stereotypeFontColor 333
  stereotypeFontSize 11
}

skinparam SequenceBox{
    backgroundColor e0e0e0
  borderColor cccccc
    fontColor 000
  fontName Verdana
  fontSize 11
  stereotypeFontColor 333
  stereotypeFontSize 11
}


skinparam interface {
    backgroundColor FF8800
  borderColor BB6600
    fontColor 000
  fontName Verdana
  fontSize 11
  stereotypeFontColor 333
  stereotypeFontSize 11
}

skinparam component {
    backgroundColor ccc
  borderColor aaa
    fontColor 000
  fontName Verdana
  fontSize 11
  stereotypeFontColor 333
  stereotypeFontSize 11
}

skinparam node {
    backgroundColor ccc
  borderColor aaa
    fontColor 000
  fontName Verdana
  fontSize 11
  stereotypeFontColor 333
  stereotypeFontSize 11
}

skinparam database {
    backgroundColor ccc
  borderColor aaa
    fontColor 000
  fontName Verdana
  fontSize 11
  stereotypeFontColor 333
  stereotypeFontSize 11
}

skinparam queue {
    backgroundColor ccc
  borderColor aaa
    fontColor 000
  fontName Verdana
  fontSize 11
  stereotypeFontColor 333
  stereotypeFontSize 11
}


skinparam usecase {
    backgroundColor ccc
  borderColor aaa
    fontColor 000
  fontName Verdana
  fontSize 11
  stereotypeFontColor 333
  stereotypeFontSize 11
    arrowColor 000
  arrowFontName Verdana
  arrowFontColor 333
  arrowFontSize 11
}

skinparam activity {
    backgroundColor ccc
  borderColor aaa
    fontColor 000
  fontName Verdana
  fontSize 11
  stereotypeFontColor 333
  stereotypeFontSize 11
    arrowColor 000
  arrowFontName Verdana
  arrowFontColor 333
  arrowFontSize 11
}

skinparam sequence {
    fontColor 000
  fontName Verdana
  fontSize 11
  stereotypeFontColor 333
  stereotypeFontSize 11
    arrowColor 000
  arrowFontName Verdana
  arrowFontColor 333
  arrowFontSize 11

  lifeLineBorderColor FF8800
  lifeLineBackgroundColor e0e0e0
}

skinparam boundary {
    backgroundColor FF8800
  borderColor BB6600
    fontColor 000
  fontName Verdana
  fontSize 11
  stereotypeFontColor 333
  stereotypeFontSize 11
}

skinparam control {
    backgroundColor FF8800
  borderColor BB6600
    fontColor 000
  fontName Verdana
  fontSize 11
  stereotypeFontColor 333
  stereotypeFontSize 11
}

skinparam entity {
    backgroundColor FF8800
  borderColor BB6600
    fontColor 000
  fontName Verdana
  fontSize 11
  stereotypeFontColor 333
  stereotypeFontSize 11
}


skinparam state {
    backgroundColor ccc
  borderColor aaa
    fontColor 000
  fontName Verdana
  fontSize 11
  stereotypeFontColor 333
  stereotypeFontSize 11
    arrowColor 000
  arrowFontName Verdana
  arrowFontColor 333
  arrowFontSize 11
  startColor FF8800
  endColor BB6600
}


skinparam object {
    backgroundColor ccc
  borderColor aaa
    fontColor 000
  fontName Verdana
  fontSize 11
  stereotypeFontColor 333
  stereotypeFontSize 11
    arrowColor 000
  arrowFontName Verdana
  arrowFontColor 333
  arrowFontSize 11
}


skinparam note {
    backgroundColor FF8800
  borderColor BB6600
    fontColor 000
  fontName Verdana
  fontSize 11
  stereotypeFontColor 333
  stereotypeFontSize 11
}

skinparam cloud {
    backgroundColor ccc
  borderColor aaa
    fontColor 000
  fontName Verdana
  fontSize 11
  stereotypeFontColor 333
  stereotypeFontSize 11
    arrowColor 000
  arrowFontName Verdana
  arrowFontColor 333
  arrowFontSize 11
}

skinparam rectangle {
    backgroundColor ccc
  borderColor aaa
    fontColor 000
  fontName Verdana
  fontSize 11
  stereotypeFontColor 333
  stereotypeFontSize 11
}

skinparam storage {
    backgroundColor ccc
  borderColor aaa
    fontColor 000
  fontName Verdana
  fontSize 11
  stereotypeFontColor 333
  stereotypeFontSize 11
}


 enum processState{
     WaitingPayment
     Agended
     InProgress
     Concluded
 }


 enum classification{
     Unreliable
     Clumsy
     GetsItDone
     HardWorker
     Attentive
     Savior
 }


 entity servicesType{
     bool pro
     string service
 }

 entity date{
     unsigned int day
     unsigned int month
     unsigned int year
     unsigned int hours
     unsigned int minutes
 }

class HouseMaster{
    - vector<servicesType*> availableServices
    - vector<individuals*> collaborators
    - vector<individuals*> clients
    - vector<intervention*> interventions
    - - - -
    + void houseMaster()
    
    + int getAvailableServices()
    - int addAvailableServices(bool pro, string service)
    - int removeAvailableServices(string service)
    
    + int getCollaborators()
    - int addCollaborator(string name, vector<servicesType*> functions, Availability)
    - int removeCollaborator(unsigned int id)
    
    + int getClients()
    - int addClient(string name)
    - int removeClient(unsigned int id)

    + int getInterventions()
    + int addIntervention(servicesType type, date appointment)
    + int removeIntervention(unsigned int id)
    
    + int assignCollaborator(intervention toAssignTo)
    + int calculateCost(intervention toCalculateFrom)
}


class Intervention{
    - unsigned int id
    - date appointment
    - servicesType type
    - bool forcePro
    - collaborator assigned
    - processState state
    - float price
    - - - -
    + void intervention(date appointment, servicesType type, bool forcePro)
    + int getType()
    + int getProcessState()
    + int getPrice()
}


class Individual{
    # string name
    # unsigned int id
    # vector<interventions*> associatedInterventions
    - - - -
    + individual(string name)
    + unsigned int getId()
    + string getName()
    + bool operator== (const individual& right)
}

class Collaborator{
    - vector<servicesType*> functions
    - classification score
    - Availability
    - - - -
    + void collaborator(vector<servicesType*> functions)
    + int getFunctions()
    + int getScore()
    + int getAvailability()
}

class Client{
    - unsigned int nif
    - - - -
    + void client(string nif)
    + unsigned int getNif()
    + int requestIntervention(date appointment, servicesType type, bool forcePro)
}
Individual <|- - Collaborator
Individual <|- - Client
@enduml

PlantUML version 1.2020.09(Sun May 10 11:51:06 WEST 2020)
(GPL source distribution)
Java Runtime: OpenJDK Runtime Environment
JVM: OpenJDK 64-Bit Server VM
Java Version: 11.0.8+10-b944.34
Operating System: Linux
Default Encoding: UTF-8
Language: pt
Country: PT
--></g></svg>