<?xml version="1.0" encoding="UTF-8" standalone="no"?><svg xmlns="http://www.w3.org/2000/svg" xmlns:xlink="http://www.w3.org/1999/xlink" contentScriptType="application/ecmascript" contentStyleType="text/css" height="585px" preserveAspectRatio="none" style="width:1694px;height:585px;" version="1.1" viewBox="0 0 1694 585" width="1694px" zoomAndPan="magnify"><defs><filter height="300%" id="f4uv086kytt4f" width="300%" x="-1" y="-1"><feGaussianBlur result="blurOut" stdDeviation="2.0"/><feColorMatrix in="blurOut" result="blurOut2" type="matrix" values="0 0 0 0 0 0 0 0 0 0 0 0 0 0 0 0 0 0 .4 0"/><feOffset dx="4.0" dy="4.0" in="blurOut2" result="blurOut3"/><feBlend in="SourceGraphic" in2="blurOut3" mode="normal"/></filter></defs><g><!--MD5=[d694de1a4d3eb4abf36fc4a4dacd5966]
class processState--><rect fill="#CCCCCC" filter="url(#f4uv086kytt4f)" height="94.7996" id="processState" style="stroke: #AAAAAA; stroke-width: 1.5;" width="91" x="16" y="34.5"/><ellipse cx="28" cy="47.5" fill="#EB937F" rx="8" ry="8" style="stroke: #AAAAAA; stroke-width: 1.0;"/><path d="M26.5156,47.8906 L30.3438,47.8906 L30.3438,46.5 L26.5156,46.5 L26.5156,44.8906 L30.6563,44.8906 L30.6563,43.5 L24.8594,43.5 L24.8594,51.5 L30.8594,51.5 L30.8594,50.125 L26.5156,50.125 L26.5156,47.8906 Z "/><text fill="#000000" font-family="Verdana" font-size="11" lengthAdjust="spacingAndGlyphs" textLength="65" x="39" y="51.119">processState</text><line style="stroke: #AAAAAA; stroke-width: 1.5;" x1="17" x2="106" y1="60.5" y2="60.5"/><text fill="#333333" font-family="sans-serif" font-size="11" lengthAdjust="spacingAndGlyphs" textLength="78" x="22" y="74.7189">WaitingPayment</text><text fill="#333333" font-family="sans-serif" font-size="11" lengthAdjust="spacingAndGlyphs" textLength="43" x="22" y="87.9188">Agended</text><text fill="#333333" font-family="sans-serif" font-size="11" lengthAdjust="spacingAndGlyphs" textLength="54" x="22" y="101.1187">InProgress</text><text fill="#333333" font-family="sans-serif" font-size="11" lengthAdjust="spacingAndGlyphs" textLength="52" x="22" y="114.3186">Concluded</text><line style="stroke: #AAAAAA; stroke-width: 1.5;" x1="17" x2="106" y1="121.2996" y2="121.2996"/><!--MD5=[090baa0da4ff03e6b68a244d81271cc4]
class classification--><rect fill="#CCCCCC" filter="url(#f4uv086kytt4f)" height="121.1994" id="classification" style="stroke: #AAAAAA; stroke-width: 1.5;" width="88" x="142.5" y="21.5"/><ellipse cx="154.5" cy="34.5" fill="#EB937F" rx="8" ry="8" style="stroke: #AAAAAA; stroke-width: 1.0;"/><path d="M153.0156,34.8906 L156.8438,34.8906 L156.8438,33.5 L153.0156,33.5 L153.0156,31.8906 L157.1563,31.8906 L157.1563,30.5 L151.3594,30.5 L151.3594,38.5 L157.3594,38.5 L157.3594,37.125 L153.0156,37.125 L153.0156,34.8906 Z "/><text fill="#000000" font-family="Verdana" font-size="11" lengthAdjust="spacingAndGlyphs" textLength="62" x="165.5" y="38.119">classification</text><line style="stroke: #AAAAAA; stroke-width: 1.5;" x1="143.5" x2="229.5" y1="47.5" y2="47.5"/><text fill="#333333" font-family="sans-serif" font-size="11" lengthAdjust="spacingAndGlyphs" textLength="48" x="148.5" y="61.7189">Unreliable</text><text fill="#333333" font-family="sans-serif" font-size="11" lengthAdjust="spacingAndGlyphs" textLength="37" x="148.5" y="74.9188">Clumsy</text><text fill="#333333" font-family="sans-serif" font-size="11" lengthAdjust="spacingAndGlyphs" textLength="56" x="148.5" y="88.1187">GetsItDone</text><text fill="#333333" font-family="sans-serif" font-size="11" lengthAdjust="spacingAndGlyphs" textLength="60" x="148.5" y="101.3186">HardWorker</text><text fill="#333333" font-family="sans-serif" font-size="11" lengthAdjust="spacingAndGlyphs" textLength="42" x="148.5" y="114.5185">Attentive</text><text fill="#333333" font-family="sans-serif" font-size="11" lengthAdjust="spacingAndGlyphs" textLength="31" x="148.5" y="127.7184">Savior</text><line style="stroke: #AAAAAA; stroke-width: 1.5;" x1="143.5" x2="229.5" y1="134.6994" y2="134.6994"/><!--MD5=[44666af3f6bf3a5c82a83a4f4ee59e64]
class servicesType--><rect fill="#CCCCCC" filter="url(#f4uv086kytt4f)" height="68.3998" id="servicesType" style="stroke: #AAAAAA; stroke-width: 1.5;" width="93" x="266" y="48"/><ellipse cx="278" cy="61" fill="#FF8800" rx="8" ry="8" style="stroke: #AAAAAA; stroke-width: 1.0;"/><path d="M276.5156,61.3906 L280.3438,61.3906 L280.3438,60 L276.5156,60 L276.5156,58.3906 L280.6563,58.3906 L280.6563,57 L274.8594,57 L274.8594,65 L280.8594,65 L280.8594,63.625 L276.5156,63.625 L276.5156,61.3906 Z "/><text fill="#000000" font-family="Verdana" font-size="11" lengthAdjust="spacingAndGlyphs" textLength="67" x="289" y="64.619">servicesType</text><line style="stroke: #AAAAAA; stroke-width: 1.5;" x1="267" x2="358" y1="74" y2="74"/><text fill="#333333" font-family="sans-serif" font-size="11" lengthAdjust="spacingAndGlyphs" textLength="39" x="272" y="88.2189">bool pro</text><text fill="#333333" font-family="sans-serif" font-size="11" lengthAdjust="spacingAndGlyphs" textLength="66" x="272" y="101.4188">string service</text><line style="stroke: #AAAAAA; stroke-width: 1.5;" x1="267" x2="358" y1="108.3998" y2="108.3998"/><!--MD5=[795a4aacf1bde433470b0e5b01d3050a]
class date--><rect fill="#CCCCCC" filter="url(#f4uv086kytt4f)" height="107.9995" id="date" style="stroke: #AAAAAA; stroke-width: 1.5;" width="111" x="6" y="341.5"/><ellipse cx="47.5" cy="354.5" fill="#FF8800" rx="8" ry="8" style="stroke: #AAAAAA; stroke-width: 1.0;"/><path d="M46.0156,354.8906 L49.8438,354.8906 L49.8438,353.5 L46.0156,353.5 L46.0156,351.8906 L50.1563,351.8906 L50.1563,350.5 L44.3594,350.5 L44.3594,358.5 L50.3594,358.5 L50.3594,357.125 L46.0156,357.125 L46.0156,354.8906 Z "/><text fill="#000000" font-family="Verdana" font-size="11" lengthAdjust="spacingAndGlyphs" textLength="21" x="63.5" y="358.119">date</text><line style="stroke: #AAAAAA; stroke-width: 1.5;" x1="7" x2="116" y1="367.5" y2="367.5"/><text fill="#333333" font-family="sans-serif" font-size="11" lengthAdjust="spacingAndGlyphs" textLength="79" x="12" y="381.7189">unsigned int day</text><text fill="#333333" font-family="sans-serif" font-size="11" lengthAdjust="spacingAndGlyphs" textLength="91" x="12" y="394.9188">unsigned int month</text><text fill="#333333" font-family="sans-serif" font-size="11" lengthAdjust="spacingAndGlyphs" textLength="83" x="12" y="408.1187">unsigned int year</text><text fill="#333333" font-family="sans-serif" font-size="11" lengthAdjust="spacingAndGlyphs" textLength="89" x="12" y="421.3186">unsigned int hours</text><text fill="#333333" font-family="sans-serif" font-size="11" lengthAdjust="spacingAndGlyphs" textLength="99" x="12" y="434.5185">unsigned int minutes</text><line style="stroke: #AAAAAA; stroke-width: 1.5;" x1="7" x2="116" y1="441.4995" y2="441.4995"/><!--MD5=[1d9813c44ddce7c61b3724bcbdc24041]
class houseMaster--><rect fill="#CCCCCC" filter="url(#f4uv086kytt4f)" height="358.7976" id="houseMaster" style="stroke: #AAAAAA; stroke-width: 1.5;" width="402" x="152.5" y="216"/><ellipse cx="318" cy="229" fill="#FF8800" rx="8" ry="8" style="stroke: #AAAAAA; stroke-width: 1.0;"/><path d="M321.5,227.75 C321.4375,227.1094 321.2969,226.7031 320.9531,226.2656 C320.3438,225.4531 319.3438,225 318.1563,225 C315.8906,225 314.4688,226.6094 314.4688,229.0156 C314.4688,231.4219 315.875,233 318.1094,233 C320.1094,233 321.4219,231.8594 321.5313,230.125 L319.9219,230.125 C319.8125,231.0781 319.1719,231.625 318.1563,231.625 C316.875,231.625 316.125,230.6563 316.125,229.0313 C316.125,227.3906 316.9063,226.4219 318.2031,226.4219 C319.1563,226.4219 319.7031,226.8438 319.9219,227.75 L321.5,227.75 Z "/><text fill="#000000" font-family="Verdana" font-size="11" lengthAdjust="spacingAndGlyphs" textLength="64" x="334" y="232.619">houseMaster</text><line style="stroke: #AAAAAA; stroke-width: 1.5;" x1="153.5" x2="553.5" y1="242" y2="242"/><rect fill="none" height="6" style="stroke: #C82930; stroke-width: 1.0;" width="6" x="160.5" y="250"/><text fill="#333333" font-family="sans-serif" font-size="11" lengthAdjust="spacingAndGlyphs" textLength="202" x="169.5" y="256.2189">vector&lt;servicesType&gt;* availableServices</text><rect fill="none" height="6" style="stroke: #C82930; stroke-width: 1.0;" width="6" x="160.5" y="263.1999"/><text fill="#333333" font-family="sans-serif" font-size="11" lengthAdjust="spacingAndGlyphs" textLength="163" x="169.5" y="269.4188">vector&lt;individuals&gt;* collaborators</text><rect fill="none" height="6" style="stroke: #C82930; stroke-width: 1.0;" width="6" x="160.5" y="276.3998"/><text fill="#333333" font-family="sans-serif" font-size="11" lengthAdjust="spacingAndGlyphs" textLength="131" x="169.5" y="282.6187">vector&lt;individuals&gt;* clients</text><rect fill="none" height="6" style="stroke: #C82930; stroke-width: 1.0;" width="6" x="160.5" y="289.5997"/><text fill="#333333" font-family="sans-serif" font-size="11" lengthAdjust="spacingAndGlyphs" textLength="168" x="169.5" y="295.8186">vector&lt;intervention&gt;* interventions</text><line style="stroke: #AAAAAA; stroke-width: 1.0;" x1="153.5" x2="553.5" y1="302.7996" y2="302.7996"/><ellipse cx="163.5" cy="313.7996" fill="#84BE84" rx="3" ry="3" style="stroke: #038048; stroke-width: 1.0;"/><text fill="#333333" font-family="sans-serif" font-size="11" lengthAdjust="spacingAndGlyphs" textLength="95" x="169.5" y="317.0185">void houseMaster()</text><text fill="#333333" font-family="sans-serif" font-size="11" lengthAdjust="spacingAndGlyphs" textLength="0" x="172.5" y="330.2184"/><ellipse cx="163.5" cy="340.1994" fill="#84BE84" rx="3" ry="3" style="stroke: #038048; stroke-width: 1.0;"/><text fill="#333333" font-family="sans-serif" font-size="11" lengthAdjust="spacingAndGlyphs" textLength="123" x="169.5" y="343.4183">int getAvailableServices()</text><rect fill="#F24D5C" height="6" style="stroke: #C82930; stroke-width: 1.0;" width="6" x="160.5" y="350.3993"/><text fill="#333333" font-family="sans-serif" font-size="11" lengthAdjust="spacingAndGlyphs" textLength="237" x="169.5" y="356.6182">int addAvailableServices(bool pro, string service)</text><rect fill="#F24D5C" height="6" style="stroke: #C82930; stroke-width: 1.0;" width="6" x="160.5" y="363.5992"/><text fill="#333333" font-family="sans-serif" font-size="11" lengthAdjust="spacingAndGlyphs" textLength="211" x="169.5" y="369.8181">int removeAvailableServices(string service)</text><text fill="#333333" font-family="sans-serif" font-size="11" lengthAdjust="spacingAndGlyphs" textLength="0" x="172.5" y="383.018"/><ellipse cx="163.5" cy="392.999" fill="#84BE84" rx="3" ry="3" style="stroke: #038048; stroke-width: 1.0;"/><text fill="#333333" font-family="sans-serif" font-size="11" lengthAdjust="spacingAndGlyphs" textLength="102" x="169.5" y="396.2179">int getCollaborators()</text><rect fill="#F24D5C" height="6" style="stroke: #C82930; stroke-width: 1.0;" width="6" x="160.5" y="403.1989"/><text fill="#333333" font-family="sans-serif" font-size="11" lengthAdjust="spacingAndGlyphs" textLength="379" x="169.5" y="409.4178">int addCollaborator(string name, vector&lt;servicesType&gt;* functions, Availability)</text><rect fill="#F24D5C" height="6" style="stroke: #C82930; stroke-width: 1.0;" width="6" x="160.5" y="416.3988"/><text fill="#333333" font-family="sans-serif" font-size="11" lengthAdjust="spacingAndGlyphs" textLength="187" x="169.5" y="422.6177">int removeCollaborator(unsigned int id)</text><text fill="#333333" font-family="sans-serif" font-size="11" lengthAdjust="spacingAndGlyphs" textLength="0" x="172.5" y="435.8176"/><ellipse cx="163.5" cy="445.7986" fill="#84BE84" rx="3" ry="3" style="stroke: #038048; stroke-width: 1.0;"/><text fill="#333333" font-family="sans-serif" font-size="11" lengthAdjust="spacingAndGlyphs" textLength="70" x="169.5" y="449.0175">int getClients()</text><rect fill="#F24D5C" height="6" style="stroke: #C82930; stroke-width: 1.0;" width="6" x="160.5" y="455.9985"/><text fill="#333333" font-family="sans-serif" font-size="11" lengthAdjust="spacingAndGlyphs" textLength="124" x="169.5" y="462.2174">int addClient(string name)</text><rect fill="#F24D5C" height="6" style="stroke: #C82930; stroke-width: 1.0;" width="6" x="160.5" y="469.1984"/><text fill="#333333" font-family="sans-serif" font-size="11" lengthAdjust="spacingAndGlyphs" textLength="155" x="169.5" y="475.4173">int removeClient(unsigned int id)</text><text fill="#333333" font-family="sans-serif" font-size="11" lengthAdjust="spacingAndGlyphs" textLength="0" x="172.5" y="488.6173"/><ellipse cx="163.5" cy="498.5982" fill="#84BE84" rx="3" ry="3" style="stroke: #038048; stroke-width: 1.0;"/><text fill="#333333" font-family="sans-serif" font-size="11" lengthAdjust="spacingAndGlyphs" textLength="100" x="169.5" y="501.8172">int getInterventions()</text><ellipse cx="163.5" cy="511.7981" fill="#84BE84" rx="3" ry="3" style="stroke: #038048; stroke-width: 1.0;"/><text fill="#333333" font-family="sans-serif" font-size="11" lengthAdjust="spacingAndGlyphs" textLength="277" x="169.5" y="515.0171">int addIntervention(servicesType type, date appointment)</text><ellipse cx="163.5" cy="524.998" fill="#84BE84" rx="3" ry="3" style="stroke: #038048; stroke-width: 1.0;"/><text fill="#333333" font-family="sans-serif" font-size="11" lengthAdjust="spacingAndGlyphs" textLength="185" x="169.5" y="528.217">int removeIntervention(unsigned int id)</text><text fill="#333333" font-family="sans-serif" font-size="11" lengthAdjust="spacingAndGlyphs" textLength="0" x="172.5" y="541.4169"/><ellipse cx="163.5" cy="551.3978" fill="#84BE84" rx="3" ry="3" style="stroke: #038048; stroke-width: 1.0;"/><text fill="#333333" font-family="sans-serif" font-size="11" lengthAdjust="spacingAndGlyphs" textLength="227" x="169.5" y="554.6168">int assignCollaborator(intervention toAssignTo)</text><ellipse cx="163.5" cy="564.5977" fill="#84BE84" rx="3" ry="3" style="stroke: #038048; stroke-width: 1.0;"/><text fill="#333333" font-family="sans-serif" font-size="11" lengthAdjust="spacingAndGlyphs" textLength="227" x="169.5" y="567.8167">int calculateCost(intervention toCalculateFrom)</text><!--MD5=[6da31fdff1fdb71a6c9456cb748cc98d]
class intervention--><rect fill="#CCCCCC" filter="url(#f4uv086kytt4f)" height="187.1989" id="intervention" style="stroke: #AAAAAA; stroke-width: 1.5;" width="361" x="590" y="302"/><ellipse cx="739" cy="315" fill="#FF8800" rx="8" ry="8" style="stroke: #AAAAAA; stroke-width: 1.0;"/><path d="M742.5,313.75 C742.4375,313.1094 742.2969,312.7031 741.9531,312.2656 C741.3438,311.4531 740.3438,311 739.1563,311 C736.8906,311 735.4688,312.6094 735.4688,315.0156 C735.4688,317.4219 736.875,319 739.1094,319 C741.1094,319 742.4219,317.8594 742.5313,316.125 L740.9219,316.125 C740.8125,317.0781 740.1719,317.625 739.1563,317.625 C737.875,317.625 737.125,316.6563 737.125,315.0313 C737.125,313.3906 737.9063,312.4219 739.2031,312.4219 C740.1563,312.4219 740.7031,312.8438 740.9219,313.75 L742.5,313.75 Z "/><text fill="#000000" font-family="Verdana" font-size="11" lengthAdjust="spacingAndGlyphs" textLength="56" x="755" y="318.619">intervention</text><line style="stroke: #AAAAAA; stroke-width: 1.5;" x1="591" x2="950" y1="328" y2="328"/><rect fill="none" height="6" style="stroke: #C82930; stroke-width: 1.0;" width="6" x="598" y="336"/><text fill="#333333" font-family="sans-serif" font-size="11" lengthAdjust="spacingAndGlyphs" textLength="69" x="607" y="342.2189">unsigned int id</text><rect fill="none" height="6" style="stroke: #C82930; stroke-width: 1.0;" width="6" x="598" y="349.1999"/><text fill="#333333" font-family="sans-serif" font-size="11" lengthAdjust="spacingAndGlyphs" textLength="83" x="607" y="355.4188">date appointment</text><rect fill="none" height="6" style="stroke: #C82930; stroke-width: 1.0;" width="6" x="598" y="362.3998"/><text fill="#333333" font-family="sans-serif" font-size="11" lengthAdjust="spacingAndGlyphs" textLength="91" x="607" y="368.6187">servicesType type</text><rect fill="none" height="6" style="stroke: #C82930; stroke-width: 1.0;" width="6" x="598" y="375.5997"/><text fill="#333333" font-family="sans-serif" font-size="11" lengthAdjust="spacingAndGlyphs" textLength="65" x="607" y="381.8186">bool forcePro</text><rect fill="none" height="6" style="stroke: #C82930; stroke-width: 1.0;" width="6" x="598" y="388.7996"/><text fill="#333333" font-family="sans-serif" font-size="11" lengthAdjust="spacingAndGlyphs" textLength="104" x="607" y="395.0185">collaborator assigned</text><rect fill="none" height="6" style="stroke: #C82930; stroke-width: 1.0;" width="6" x="598" y="401.9995"/><text fill="#333333" font-family="sans-serif" font-size="11" lengthAdjust="spacingAndGlyphs" textLength="92" x="607" y="408.2184">processState state</text><rect fill="none" height="6" style="stroke: #C82930; stroke-width: 1.0;" width="6" x="598" y="415.1994"/><text fill="#333333" font-family="sans-serif" font-size="11" lengthAdjust="spacingAndGlyphs" textLength="47" x="607" y="421.4183">float price</text><line style="stroke: #AAAAAA; stroke-width: 1.0;" x1="591" x2="950" y1="428.3993" y2="428.3993"/><ellipse cx="601" cy="439.3993" fill="#84BE84" rx="3" ry="3" style="stroke: #038048; stroke-width: 1.0;"/><text fill="#333333" font-family="sans-serif" font-size="11" lengthAdjust="spacingAndGlyphs" textLength="338" x="607" y="442.6182">void intervention(date appointment, servicesType type, bool forcePro)</text><ellipse cx="601" cy="452.5992" fill="#84BE84" rx="3" ry="3" style="stroke: #038048; stroke-width: 1.0;"/><text fill="#333333" font-family="sans-serif" font-size="11" lengthAdjust="spacingAndGlyphs" textLength="62" x="607" y="455.8181">int getType()</text><ellipse cx="601" cy="465.7991" fill="#84BE84" rx="3" ry="3" style="stroke: #038048; stroke-width: 1.0;"/><text fill="#333333" font-family="sans-serif" font-size="11" lengthAdjust="spacingAndGlyphs" textLength="103" x="607" y="469.018">int getProcessState()</text><ellipse cx="601" cy="478.999" fill="#84BE84" rx="3" ry="3" style="stroke: #038048; stroke-width: 1.0;"/><text fill="#333333" font-family="sans-serif" font-size="11" lengthAdjust="spacingAndGlyphs" textLength="62" x="607" y="482.2179">int getPrice()</text><!--MD5=[5302afe737c4073d2935af9567d5c3ca]
class individual--><rect fill="#CCCCCC" filter="url(#f4uv086kytt4f)" height="147.5992" id="individual" style="stroke: #AAAAAA; stroke-width: 1.5;" width="296" x="1157.5" y="8"/><ellipse cx="1280" cy="21" fill="#FF8800" rx="8" ry="8" style="stroke: #AAAAAA; stroke-width: 1.0;"/><path d="M1283.5,19.75 C1283.4375,19.1094 1283.2969,18.7031 1282.9531,18.2656 C1282.3438,17.4531 1281.3438,17 1280.1563,17 C1277.8906,17 1276.4688,18.6094 1276.4688,21.0156 C1276.4688,23.4219 1277.875,25 1280.1094,25 C1282.1094,25 1283.4219,23.8594 1283.5313,22.125 L1281.9219,22.125 C1281.8125,23.0781 1281.1719,23.625 1280.1563,23.625 C1278.875,23.625 1278.125,22.6563 1278.125,21.0313 C1278.125,19.3906 1278.9063,18.4219 1280.2031,18.4219 C1281.1563,18.4219 1281.7031,18.8438 1281.9219,19.75 L1283.5,19.75 Z "/><text fill="#000000" font-family="Verdana" font-size="11" lengthAdjust="spacingAndGlyphs" textLength="44" x="1296" y="24.619">individual</text><line style="stroke: #AAAAAA; stroke-width: 1.5;" x1="1158.5" x2="1452.5" y1="34" y2="34"/><polygon fill="none" points="1168.5,40,1172.5,44,1168.5,48,1164.5,44" style="stroke: #B38D22; stroke-width: 1.0;"/><text fill="#333333" font-family="sans-serif" font-size="11" lengthAdjust="spacingAndGlyphs" textLength="57" x="1174.5" y="48.2189">string name</text><polygon fill="none" points="1168.5,53.1999,1172.5,57.1999,1168.5,61.1999,1164.5,57.1999" style="stroke: #B38D22; stroke-width: 1.0;"/><text fill="#333333" font-family="sans-serif" font-size="11" lengthAdjust="spacingAndGlyphs" textLength="69" x="1174.5" y="61.4188">unsigned int id</text><polygon fill="none" points="1168.5,66.3998,1172.5,70.3998,1168.5,74.3998,1164.5,70.3998" style="stroke: #B38D22; stroke-width: 1.0;"/><text fill="#333333" font-family="sans-serif" font-size="11" lengthAdjust="spacingAndGlyphs" textLength="228" x="1174.5" y="74.6187">vector&lt;interventions&gt;* associatedInterventions</text><line style="stroke: #AAAAAA; stroke-width: 1.0;" x1="1158.5" x2="1452.5" y1="81.5997" y2="81.5997"/><ellipse cx="1168.5" cy="92.5997" fill="#84BE84" rx="3" ry="3" style="stroke: #038048; stroke-width: 1.0;"/><text fill="#333333" font-family="sans-serif" font-size="11" lengthAdjust="spacingAndGlyphs" textLength="132" x="1174.5" y="95.8186">void individual(string name)</text><ellipse cx="1168.5" cy="105.7996" fill="#84BE84" rx="3" ry="3" style="stroke: #038048; stroke-width: 1.0;"/><text fill="#333333" font-family="sans-serif" font-size="11" lengthAdjust="spacingAndGlyphs" textLength="273" x="1174.5" y="109.0185">int individual(string name, vector&lt;individual&gt;* individuals)</text><ellipse cx="1168.5" cy="118.9995" fill="#84BE84" rx="3" ry="3" style="stroke: #038048; stroke-width: 1.0;"/><text fill="#333333" font-family="sans-serif" font-size="11" lengthAdjust="spacingAndGlyphs" textLength="46" x="1174.5" y="122.2184">int getId()</text><ellipse cx="1168.5" cy="132.1994" fill="#84BE84" rx="3" ry="3" style="stroke: #038048; stroke-width: 1.0;"/><text fill="#333333" font-family="sans-serif" font-size="11" lengthAdjust="spacingAndGlyphs" textLength="66" x="1174.5" y="135.4183">int getName()</text><ellipse cx="1168.5" cy="145.3993" fill="#84BE84" rx="3" ry="3" style="stroke: #038048; stroke-width: 1.0;"/><text fill="#333333" font-family="sans-serif" font-size="11" lengthAdjust="spacingAndGlyphs" textLength="228" x="1174.5" y="148.6182">int findIndividual(string name, unsigned int id=0)</text><!--MD5=[c52ac89f308f63139a743561fd6e7700]
class collaborator--><rect fill="#CCCCCC" filter="url(#f4uv086kytt4f)" height="134.3993" id="collaborator" style="stroke: #AAAAAA; stroke-width: 1.5;" width="272" x="986.5" y="328.5"/><ellipse cx="1090.5" cy="341.5" fill="#FF8800" rx="8" ry="8" style="stroke: #AAAAAA; stroke-width: 1.0;"/><path d="M1094,340.25 C1093.9375,339.6094 1093.7969,339.2031 1093.4531,338.7656 C1092.8438,337.9531 1091.8438,337.5 1090.6563,337.5 C1088.3906,337.5 1086.9688,339.1094 1086.9688,341.5156 C1086.9688,343.9219 1088.375,345.5 1090.6094,345.5 C1092.6094,345.5 1093.9219,344.3594 1094.0313,342.625 L1092.4219,342.625 C1092.3125,343.5781 1091.6719,344.125 1090.6563,344.125 C1089.375,344.125 1088.625,343.1563 1088.625,341.5313 C1088.625,339.8906 1089.4063,338.9219 1090.7031,338.9219 C1091.6563,338.9219 1092.2031,339.3438 1092.4219,340.25 L1094,340.25 Z "/><text fill="#000000" font-family="Verdana" font-size="11" lengthAdjust="spacingAndGlyphs" textLength="57" x="1106.5" y="345.119">collaborator</text><line style="stroke: #AAAAAA; stroke-width: 1.5;" x1="987.5" x2="1257.5" y1="354.5" y2="354.5"/><rect fill="none" height="6" style="stroke: #C82930; stroke-width: 1.0;" width="6" x="994.5" y="362.5"/><text fill="#333333" font-family="sans-serif" font-size="11" lengthAdjust="spacingAndGlyphs" textLength="161" x="1003.5" y="368.7189">vector&lt;servicesType&gt;* functions</text><rect fill="none" height="6" style="stroke: #C82930; stroke-width: 1.0;" width="6" x="994.5" y="375.6999"/><text fill="#333333" font-family="sans-serif" font-size="11" lengthAdjust="spacingAndGlyphs" textLength="93" x="1003.5" y="381.9188">classification score</text><rect fill="none" height="6" style="stroke: #C82930; stroke-width: 1.0;" width="6" x="994.5" y="388.8998"/><text fill="#333333" font-family="sans-serif" font-size="11" lengthAdjust="spacingAndGlyphs" textLength="50" x="1003.5" y="395.1187">Availability</text><line style="stroke: #AAAAAA; stroke-width: 1.0;" x1="987.5" x2="1257.5" y1="402.0997" y2="402.0997"/><ellipse cx="997.5" cy="413.0997" fill="#84BE84" rx="3" ry="3" style="stroke: #038048; stroke-width: 1.0;"/><text fill="#333333" font-family="sans-serif" font-size="11" lengthAdjust="spacingAndGlyphs" textLength="249" x="1003.5" y="416.3186">void collaborator(vector&lt;servicesType&gt;* functions)</text><ellipse cx="997.5" cy="426.2996" fill="#84BE84" rx="3" ry="3" style="stroke: #038048; stroke-width: 1.0;"/><text fill="#333333" font-family="sans-serif" font-size="11" lengthAdjust="spacingAndGlyphs" textLength="85" x="1003.5" y="429.5185">int getFunctions()</text><ellipse cx="997.5" cy="439.4995" fill="#84BE84" rx="3" ry="3" style="stroke: #038048; stroke-width: 1.0;"/><text fill="#333333" font-family="sans-serif" font-size="11" lengthAdjust="spacingAndGlyphs" textLength="66" x="1003.5" y="442.7184">int getScore()</text><ellipse cx="997.5" cy="452.6994" fill="#84BE84" rx="3" ry="3" style="stroke: #038048; stroke-width: 1.0;"/><text fill="#333333" font-family="sans-serif" font-size="11" lengthAdjust="spacingAndGlyphs" textLength="87" x="1003.5" y="455.9183">int getAvailability()</text><!--MD5=[e3f72718913f1e037c5bc72e44de49f6]
class client--><rect fill="#CCCCCC" filter="url(#f4uv086kytt4f)" height="94.7996" id="client" style="stroke: #AAAAAA; stroke-width: 1.5;" width="390" x="1293.5" y="348"/><ellipse cx="1472.5" cy="361" fill="#FF8800" rx="8" ry="8" style="stroke: #AAAAAA; stroke-width: 1.0;"/><path d="M1476,359.75 C1475.9375,359.1094 1475.7969,358.7031 1475.4531,358.2656 C1474.8438,357.4531 1473.8438,357 1472.6563,357 C1470.3906,357 1468.9688,358.6094 1468.9688,361.0156 C1468.9688,363.4219 1470.375,365 1472.6094,365 C1474.6094,365 1475.9219,363.8594 1476.0313,362.125 L1474.4219,362.125 C1474.3125,363.0781 1473.6719,363.625 1472.6563,363.625 C1471.375,363.625 1470.625,362.6563 1470.625,361.0313 C1470.625,359.3906 1471.4063,358.4219 1472.7031,358.4219 C1473.6563,358.4219 1474.2031,358.8438 1474.4219,359.75 L1476,359.75 Z "/><text fill="#000000" font-family="Verdana" font-size="11" lengthAdjust="spacingAndGlyphs" textLength="25" x="1488.5" y="364.619">client</text><line style="stroke: #AAAAAA; stroke-width: 1.5;" x1="1294.5" x2="1682.5" y1="374" y2="374"/><rect fill="none" height="6" style="stroke: #C82930; stroke-width: 1.0;" width="6" x="1301.5" y="382"/><text fill="#333333" font-family="sans-serif" font-size="11" lengthAdjust="spacingAndGlyphs" textLength="41" x="1310.5" y="388.2189">string nif</text><line style="stroke: #AAAAAA; stroke-width: 1.0;" x1="1294.5" x2="1682.5" y1="395.1999" y2="395.1999"/><ellipse cx="1304.5" cy="406.1999" fill="#84BE84" rx="3" ry="3" style="stroke: #038048; stroke-width: 1.0;"/><text fill="#333333" font-family="sans-serif" font-size="11" lengthAdjust="spacingAndGlyphs" textLength="97" x="1310.5" y="409.4188">void client(string nif)</text><ellipse cx="1304.5" cy="419.3998" fill="#84BE84" rx="3" ry="3" style="stroke: #038048; stroke-width: 1.0;"/><text fill="#333333" font-family="sans-serif" font-size="11" lengthAdjust="spacingAndGlyphs" textLength="50" x="1310.5" y="422.6187">int getNif()</text><ellipse cx="1304.5" cy="432.5997" fill="#84BE84" rx="3" ry="3" style="stroke: #038048; stroke-width: 1.0;"/><text fill="#333333" font-family="sans-serif" font-size="11" lengthAdjust="spacingAndGlyphs" textLength="367" x="1310.5" y="435.8186">int requestIntervention(date appointment, servicesType type, bool forcePro)</text><!--MD5=[ff7e79bfcddd8df144b2d4a659572487]
reverse link individual to collaborator--><path d="M1252.39,173.4 C1223.31,222.91 1187.89,283.19 1161.4,328.29 " fill="none" id="individual&lt;-collaborator" style="stroke: #000000; stroke-width: 1.0;"/><polygon fill="none" points="1246.43,169.73,1262.59,156.03,1258.5,176.82,1246.43,169.73" style="stroke: #000000; stroke-width: 1.0;"/><!--MD5=[d826f5a02a1fa98a5523a2499ebed671]
reverse link individual to client--><path d="M1358.72,173.59 C1392.17,230.53 1433.95,301.65 1460.92,347.56 " fill="none" id="individual&lt;-client" style="stroke: #000000; stroke-width: 1.0;"/><polygon fill="none" points="1352.5,176.82,1348.41,156.03,1364.57,169.73,1352.5,176.82" style="stroke: #000000; stroke-width: 1.0;"/><!--MD5=[0b28f555f6085418fa031ce8cebd84de]
link processState to classification--><!--MD5=[fd7d9cf011b9bab246e03f751f944078]
link classification to servicesType--><!--MD5=[2e88bc4f1b79698071829a5fe469358e]
link processState to date--><!--MD5=[d1c3c7ba99d1282519aee55258a385bb]
link date to houseMaster--><!--MD5=[940ab5c9e676c5663b7229b89262202b]
link houseMaster to intervention--><!--MD5=[d4276dd59d4f10322afa8d2183ab0fac]
@startuml










skinparam stereotypeCBackgroundColor FF8800

skinparam backgroundColor fff








skinparam circledCharacter {
  radius 8
  fontSize 11
  fontName Verdana
}

skinparam class {
    backgroundColor ccc
  borderColor aaa
    fontColor 000
  fontName Verdana
  fontSize 11
  stereotypeFontColor 333
  stereotypeFontSize 11
    arrowColor 000
  arrowFontName Verdana
  arrowFontColor 333
  arrowFontSize 11

  attributeFontColor 333
  attributeFontSize 11
  attributeIconSize 11
}


skinparam actor {
    backgroundColor FF8800
  borderColor BB6600
    fontColor 000
  fontName Verdana
  fontSize 11
  stereotypeFontColor 333
  stereotypeFontSize 11
}

skinparam participant {
    backgroundColor ccc
  borderColor aaa
    fontColor 000
  fontName Verdana
  fontSize 11
  stereotypeFontColor 333
  stereotypeFontSize 11
}

skinparam collections {
    backgroundColor ccc
  borderColor aaa
    fontColor 000
  fontName Verdana
  fontSize 11
  stereotypeFontColor 333
  stereotypeFontSize 11
}

skinparam SequenceBox{
    backgroundColor e0e0e0
  borderColor cccccc
    fontColor 000
  fontName Verdana
  fontSize 11
  stereotypeFontColor 333
  stereotypeFontSize 11
}


skinparam interface {
    backgroundColor FF8800
  borderColor BB6600
    fontColor 000
  fontName Verdana
  fontSize 11
  stereotypeFontColor 333
  stereotypeFontSize 11
}

skinparam component {
    backgroundColor ccc
  borderColor aaa
    fontColor 000
  fontName Verdana
  fontSize 11
  stereotypeFontColor 333
  stereotypeFontSize 11
}

skinparam node {
    backgroundColor ccc
  borderColor aaa
    fontColor 000
  fontName Verdana
  fontSize 11
  stereotypeFontColor 333
  stereotypeFontSize 11
}

skinparam database {
    backgroundColor ccc
  borderColor aaa
    fontColor 000
  fontName Verdana
  fontSize 11
  stereotypeFontColor 333
  stereotypeFontSize 11
}

skinparam queue {
    backgroundColor ccc
  borderColor aaa
    fontColor 000
  fontName Verdana
  fontSize 11
  stereotypeFontColor 333
  stereotypeFontSize 11
}


skinparam usecase {
    backgroundColor ccc
  borderColor aaa
    fontColor 000
  fontName Verdana
  fontSize 11
  stereotypeFontColor 333
  stereotypeFontSize 11
    arrowColor 000
  arrowFontName Verdana
  arrowFontColor 333
  arrowFontSize 11
}

skinparam activity {
    backgroundColor ccc
  borderColor aaa
    fontColor 000
  fontName Verdana
  fontSize 11
  stereotypeFontColor 333
  stereotypeFontSize 11
    arrowColor 000
  arrowFontName Verdana
  arrowFontColor 333
  arrowFontSize 11
}

skinparam sequence {
    fontColor 000
  fontName Verdana
  fontSize 11
  stereotypeFontColor 333
  stereotypeFontSize 11
    arrowColor 000
  arrowFontName Verdana
  arrowFontColor 333
  arrowFontSize 11

  lifeLineBorderColor FF8800
  lifeLineBackgroundColor e0e0e0
}

skinparam boundary {
    backgroundColor FF8800
  borderColor BB6600
    fontColor 000
  fontName Verdana
  fontSize 11
  stereotypeFontColor 333
  stereotypeFontSize 11
}

skinparam control {
    backgroundColor FF8800
  borderColor BB6600
    fontColor 000
  fontName Verdana
  fontSize 11
  stereotypeFontColor 333
  stereotypeFontSize 11
}

skinparam entity {
    backgroundColor FF8800
  borderColor BB6600
    fontColor 000
  fontName Verdana
  fontSize 11
  stereotypeFontColor 333
  stereotypeFontSize 11
}


skinparam state {
    backgroundColor ccc
  borderColor aaa
    fontColor 000
  fontName Verdana
  fontSize 11
  stereotypeFontColor 333
  stereotypeFontSize 11
    arrowColor 000
  arrowFontName Verdana
  arrowFontColor 333
  arrowFontSize 11
  startColor FF8800
  endColor BB6600
}


skinparam object {
    backgroundColor ccc
  borderColor aaa
    fontColor 000
  fontName Verdana
  fontSize 11
  stereotypeFontColor 333
  stereotypeFontSize 11
    arrowColor 000
  arrowFontName Verdana
  arrowFontColor 333
  arrowFontSize 11
}


skinparam note {
    backgroundColor FF8800
  borderColor BB6600
    fontColor 000
  fontName Verdana
  fontSize 11
  stereotypeFontColor 333
  stereotypeFontSize 11
}

skinparam cloud {
    backgroundColor ccc
  borderColor aaa
    fontColor 000
  fontName Verdana
  fontSize 11
  stereotypeFontColor 333
  stereotypeFontSize 11
    arrowColor 000
  arrowFontName Verdana
  arrowFontColor 333
  arrowFontSize 11
}

skinparam rectangle {
    backgroundColor ccc
  borderColor aaa
    fontColor 000
  fontName Verdana
  fontSize 11
  stereotypeFontColor 333
  stereotypeFontSize 11
}

skinparam storage {
    backgroundColor ccc
  borderColor aaa
    fontColor 000
  fontName Verdana
  fontSize 11
  stereotypeFontColor 333
  stereotypeFontSize 11
}


 enum processState{
     WaitingPayment
     Agended
     InProgress
     Concluded
 }


 enum classification{
     Unreliable
     Clumsy
     GetsItDone
     HardWorker
     Attentive
     Savior
 }


 entity servicesType{
     bool pro
     string service
 }

 entity date{
     unsigned int day
     unsigned int month
     unsigned int year
     unsigned int hours
     unsigned int minutes
 }

class houseMaster{
    - vector<servicesType>* availableServices
    - vector<individuals>* collaborators
    - vector<individuals>* clients
    - vector<intervention>* interventions
    - - - -
    + void houseMaster()
    
    + int getAvailableServices()
    - int addAvailableServices(bool pro, string service)
    - int removeAvailableServices(string service)
    
    + int getCollaborators()
    - int addCollaborator(string name, vector<servicesType>* functions, Availability)
    - int removeCollaborator(unsigned int id)
    
    + int getClients()
    - int addClient(string name)
    - int removeClient(unsigned int id)

    + int getInterventions()
    + int addIntervention(servicesType type, date appointment)
    + int removeIntervention(unsigned int id)
    
    + int assignCollaborator(intervention toAssignTo)
    + int calculateCost(intervention toCalculateFrom)
}


class intervention{
    - unsigned int id
    - date appointment
    - servicesType type
    - bool forcePro
    - collaborator assigned
    - processState state
    - float price
    - - - -
    + void intervention(date appointment, servicesType type, bool forcePro)
    + int getType()
    + int getProcessState()
    + int getPrice()
}


class individual{
    # string name
    # unsigned int id
    # vector<interventions>* associatedInterventions
    - - - -
    + void individual(string name)
    + int individual(string name, vector<individual>* individuals)
    + int getId()
    + int getName()
    + int findIndividual(string name, unsigned int id=0)
}

class collaborator{
    - vector<servicesType>* functions
    - classification score
    - Availability
    - - - -
    + void collaborator(vector<servicesType>* functions)
    + int getFunctions()
    + int getScore()
    + int getAvailability()
}

class client{
    - string nif
    - - - -
    + void client(string nif)
    + int getNif()
    + int requestIntervention(date appointment, servicesType type, bool forcePro)
}
individual <|- - collaborator
individual <|- - client
@enduml

PlantUML version 1.2020.09(Sun May 10 11:51:06 WEST 2020)
(GPL source distribution)
Java Runtime: OpenJDK Runtime Environment
JVM: OpenJDK 64-Bit Server VM
Java Version: 11.0.8+10-b944.31
Operating System: Linux
Default Encoding: UTF-8
Language: pt
Country: PT
--></g></svg>